<svg xmlns="http://www.w3.org/2000/svg" viewBox="0 0 2000 2000">
  <path fill="#306090" d="M0 675L675 0L665 0L0 665L0 675z M0 695L695 0L685 0L0 685L0 695z M0 735L735 0L725 0L0 725L0 735z M0 715L715 0L705 0L0 705L0 715z M0 1015L1015 0L1005 0L0 1005L0 1015z M0 615L615 0L605 0L0 605L0 615z M0 755L755 0L745 0L0 745L0 755z M0 575L575 0L565 0L0 565L0 575z M0 635L635 0L625 0L0 625L0 635z M0 595L595 0L585 0L0 585L0 595z M0 555L555 0L545 0L0 545L0 555z M0 915L915 0L905 0L0 905L0 915z M0 935L935 0L925 0L0 925L0 935z M0 955L955 0L945 0L0 945L0 955z M0 535L535 0L525 0L0 525L0 535z M0 775L775 0L765 0L0 765L0 775z M0 895L895 0L885 0L0 885L0 895z M0 995L995 0L985 0L0 985L0 995z M0 975L975 0L965 0L0 965L0 975z M0 875L875 0L865 0L0 865L0 875z M0 795L795 0L785 0L0 785L0 795z M0 815L815 0L805 0L0 805L0 815z M0 855L855 0L845 0L0 845L0 855z M0 835L835 0L825 0L0 825L0 835z M0 655L655 0L645 0L0 645L0 655z M0 175L175 0L165 0L0 165L0 175z M0 195L195 0L185 0L0 185L0 195z M0 155L155 0L145 0L0 145L0 155z M0 215L215 0L205 0L0 205L0 215z M0 135L135 0L125 0L0 125L0 135z M0 235L235 0L225 0L0 225L0 235z M0 75L75 0L65 0L0 65L0 75z M0 35L35 0L25 0L0 25L0 35z M0 55L55 0L45 0L0 45L0 55z M0 255L255 0L245 0L0 245L0 255z M0 115L115 0L105 0L0 105L0 115z M0 515L515 0L505 0L0 505L0 515z M0 95L95 0L85 0L0 85L0 95z M0 435L435 0L425 0L0 425L0 435z M0 415L415 0L405 0L0 405L0 415z M0 495L495 0L485 0L0 485L0 495z M0 395L395 0L385 0L0 385L0 395z M0 455L455 0L445 0L0 445L0 455z M0 15L15 0L5 0L0 5L0 15z M0 315L315 0L305 0L0 305L0 315z M0 295L295 0L285 0L0 285L0 295z M0 375L375 0L365 0L0 365L0 375z M0 275L275 0L265 0L0 265L0 275z M0 335L335 0L325 0L0 325L0 335z M0 355L355 0L345 0L0 345L0 355z M0 1775L1775 0L1765 0L0 1765L0 1775z M0 1675L1675 0L1665 0L0 1665L0 1675z M0 1715L1715 0L1705 0L0 1705L0 1715z M0 1735L1735 0L1725 0L0 1725L0 1735z M0 1755L1755 0L1745 0L0 1745L0 1755z M0 1655L1655 0L1645 0L0 1645L0 1655z M0 1695L1695 0L1685 0L0 1685L0 1695z M0 1555L1555 0L1545 0L0 1545L0 1555z M0 1575L1575 0L1565 0L0 1565L0 1575z M0 1595L1595 0L1585 0L0 1585L0 1595z M0 1635L1635 0L1625 0L0 1625L0 1635z M0 1615L1615 0L1605 0L0 1605L0 1615z M0 1795L1795 0L1785 0L0 1785L0 1795z M0 1935L1935 0L1925 0L0 1925L0 1935z M0 1955L1955 0L1945 0L0 1945L0 1955z M0 1995L1995 0L1985 0L0 1985L0 1995z M0 1915L1915 0L1905 0L0 1905L0 1915z M0 1975L1975 0L1965 0L0 1965L0 1975z M0 1875L1875 0L1865 0L0 1865L0 1875z M0 1835L1835 0L1825 0L0 1825L0 1835z M0 1815L1815 0L1805 0L0 1805L0 1815z M0 1895L1895 0L1885 0L0 1885L0 1895z M0 1855L1855 0L1845 0L0 1845L0 1855z M0 1535L1535 0L1525 0L0 1525L0 1535z M0 1235L1235 0L1225 0L0 1225L0 1235z M0 1275L1275 0L1265 0L0 1265L0 1275z M0 1175L1175 0L1165 0L0 1165L0 1175z M0 1155L1155 0L1145 0L0 1145L0 1155z M0 1215L1215 0L1205 0L0 1205L0 1215z M0 1255L1255 0L1245 0L0 1245L0 1255z M0 1035L1035 0L1025 0L0 1025L0 1035z M0 1195L1195 0L1185 0L0 1185L0 1195z M0 1075L1075 0L1065 0L0 1065L0 1075z M0 1055L1055 0L1045 0L0 1045L0 1055z M0 1115L1115 0L1105 0L0 1105L0 1115z M0 1095L1095 0L1085 0L0 1085L0 1095z M0 1135L1135 0L1125 0L0 1125L0 1135z M0 1455L1455 0L1445 0L0 1445L0 1455z M0 1515L1515 0L1505 0L0 1505L0 1515z M0 1415L1415 0L1405 0L0 1405L0 1415z M0 1435L1435 0L1425 0L0 1425L0 1435z M0 1475L1475 0L1465 0L0 1465L0 1475z M0 1495L1495 0L1485 0L0 1485L0 1495z M0 1375L1375 0L1365 0L0 1365L0 1375z M0 1395L1395 0L1385 0L0 1385L0 1395z M0 1315L1315 0L1305 0L0 1305L0 1315z M0 1335L1335 0L1325 0L0 1325L0 1335z M0 1295L1295 0L1285 0L0 1285L0 1295z M0 1355L1355 0L1345 0L0 1345L0 1355z M0 475L475 0L465 0L0 465L0 475z M2000 1345L1345 2000L1355 2000L2000 1355L2000 1345z M2000 1385L1385 2000L1395 2000L2000 1395L2000 1385z M2000 1325L1325 2000L1335 2000L2000 1335L2000 1325z M2000 1005L1005 2000L1015 2000L2000 1015L2000 1005z M2000 1305L1305 2000L1315 2000L2000 1315L2000 1305z M2000 1285L1285 2000L1295 2000L2000 1295L2000 1285z M2000 5L5 2000L15 2000L2000 15L2000 5z M2000 1465L1465 2000L1475 2000L2000 1475L2000 1465z M2000 1485L1485 2000L1495 2000L2000 1495L2000 1485z M2000 1445L1445 2000L1455 2000L2000 1455L2000 1445z M2000 1405L1405 2000L1415 2000L2000 1415L2000 1405z M2000 1425L1425 2000L1435 2000L2000 1435L2000 1425z M2000 1205L1205 2000L1215 2000L2000 1215L2000 1205z M2000 1065L1065 2000L1075 2000L2000 1075L2000 1065z M2000 1245L1245 2000L1255 2000L2000 1255L2000 1245z M2000 1125L1125 2000L1135 2000L2000 1135L2000 1125z M2000 1105L1105 2000L1115 2000L2000 1115L2000 1105z M2000 1045L1045 2000L1055 2000L2000 1055L2000 1045z M2000 1025L1025 2000L1035 2000L2000 1035L2000 1025z M2000 1085L1085 2000L1095 2000L2000 1095L2000 1085z M2000 1225L1225 2000L1235 2000L2000 1235L2000 1225z M2000 1505L1505 2000L1515 2000L2000 1515L2000 1505z M2000 1165L1165 2000L1175 2000L2000 1175L2000 1165z M2000 1145L1145 2000L1155 2000L2000 1155L2000 1145z M2000 1185L1185 2000L1195 2000L2000 1195L2000 1185z M2000 1365L1365 2000L1375 2000L2000 1375L2000 1365z M2000 1765L1765 2000L1775 2000L2000 1775L2000 1765z M2000 1845L1845 2000L1855 2000L2000 1855L2000 1845z M2000 1865L1865 2000L1875 2000L2000 1875L2000 1865z M2000 1785L1785 2000L1795 2000L2000 1795L2000 1785z M2000 1805L1805 2000L1815 2000L2000 1815L2000 1805z M2000 1885L1885 2000L1895 2000L2000 1895L2000 1885z M2000 1825L1825 2000L1835 2000L2000 1835L2000 1825z M2000 1525L1525 2000L1535 2000L2000 1535L2000 1525z M2000 1985L1985 2000L1995 2000L2000 1995L2000 1985z M2000 1945L1945 2000L1955 2000L2000 1955L2000 1945z M2000 1905L1905 2000L1915 2000L2000 1915L2000 1905z M2000 1925L1925 2000L1935 2000L2000 1935L2000 1925z M2000 1965L1965 2000L1975 2000L2000 1975L2000 1965z M2000 1605L1605 2000L1615 2000L2000 1615L2000 1605z M2000 1585L1585 2000L1595 2000L2000 1595L2000 1585z M2000 1625L1625 2000L1635 2000L2000 1635L2000 1625z M2000 1545L1545 2000L1555 2000L2000 1555L2000 1545z M2000 1565L1565 2000L1575 2000L2000 1575L2000 1565z M2000 1705L1705 2000L1715 2000L2000 1715L2000 1705z M2000 1745L1745 2000L1755 2000L2000 1755L2000 1745z M2000 1725L1725 2000L1735 2000L2000 1735L2000 1725z M2000 1645L1645 2000L1655 2000L2000 1655L2000 1645z M2000 1665L1665 2000L1675 2000L2000 1675L2000 1665z M2000 1685L1685 2000L1695 2000L2000 1695L2000 1685z M2000 1265L1265 2000L1275 2000L2000 1275L2000 1265z M2000 325L325 2000L335 2000L2000 335L2000 325z M2000 345L345 2000L355 2000L2000 355L2000 345z M2000 245L245 2000L255 2000L2000 255L2000 245z M2000 365L365 2000L375 2000L2000 375L2000 365z M2000 265L265 2000L275 2000L2000 275L2000 265z M2000 285L285 2000L295 2000L2000 295L2000 285z M2000 305L305 2000L315 2000L2000 315L2000 305z M2000 445L445 2000L455 2000L2000 455L2000 445z M2000 465L465 2000L475 2000L2000 475L2000 465z M2000 425L425 2000L435 2000L2000 435L2000 425z M2000 405L405 2000L415 2000L2000 415L2000 405z M2000 385L385 2000L395 2000L2000 395L2000 385z M2000 45L45 2000L55 2000L2000 55L2000 45z M2000 65L65 2000L75 2000L2000 75L2000 65z M2000 105L105 2000L115 2000L2000 115L2000 105z M2000 85L85 2000L95 2000L2000 95L2000 85z M2000 485L485 2000L495 2000L2000 495L2000 485z M2000 25L25 2000L35 2000L2000 35L2000 25z M2000 165L165 2000L175 2000L2000 175L2000 165z M2000 125L125 2000L135 2000L2000 135L2000 125z M2000 185L185 2000L195 2000L2000 195L2000 185z M2000 205L205 2000L215 2000L2000 215L2000 205z M2000 145L145 2000L155 2000L2000 155L2000 145z M2000 225L225 2000L235 2000L2000 235L2000 225z M2000 825L825 2000L835 2000L2000 835L2000 825z M2000 985L985 2000L995 2000L2000 995L2000 985z M2000 805L805 2000L815 2000L2000 815L2000 805z M2000 845L845 2000L855 2000L2000 855L2000 845z M2000 785L785 2000L795 2000L2000 795L2000 785z M2000 865L865 2000L875 2000L2000 875L2000 865z M2000 765L765 2000L775 2000L2000 775L2000 765z M2000 965L965 2000L975 2000L2000 975L2000 965z M2000 885L885 2000L895 2000L2000 895L2000 885z M2000 945L945 2000L955 2000L2000 955L2000 945z M2000 745L745 2000L755 2000L2000 755L2000 745z M2000 925L925 2000L935 2000L2000 935L2000 925z M2000 905L905 2000L915 2000L2000 915L2000 905z M2000 705L705 2000L715 2000L2000 715L2000 705z M2000 585L585 2000L595 2000L2000 595L2000 585z M2000 565L565 2000L575 2000L2000 575L2000 565z M2000 525L525 2000L535 2000L2000 535L2000 525z M2000 605L605 2000L615 2000L2000 615L2000 605z M2000 725L725 2000L735 2000L2000 735L2000 725z M2000 545L545 2000L555 2000L2000 555L2000 545z M2000 505L505 2000L515 2000L2000 515L2000 505z M2000 625L625 2000L635 2000L2000 635L2000 625z M2000 685L685 2000L695 2000L2000 695L2000 685z M2000 645L645 2000L655 2000L2000 655L2000 645z M2000 665L665 2000L675 2000L2000 675L2000 665z"/>
</svg>